<mxfile host="app.diagrams.net" modified="2023-08-28T03:42:51.957Z" agent="Mozilla/5.0 (Windows NT 10.0; Win64; x64) AppleWebKit/537.36 (KHTML, like Gecko) Chrome/116.0.0.0 Safari/537.36 Edg/116.0.1938.62" etag="Bbb9QcLYGVumhkijucn0" version="21.6.9" type="github">
  <diagram name="第 1 页" id="-yWN7vcOstx94pBqKK2C">
    <mxGraphModel dx="1892" dy="1142" grid="1" gridSize="10" guides="1" tooltips="1" connect="1" arrows="1" fold="1" page="1" pageScale="1" pageWidth="827" pageHeight="1169" math="0" shadow="0">
      <root>
        <mxCell id="0" />
        <mxCell id="1" parent="0" />
        <mxCell id="WaVDvveVSsbOzV-QIGKt-23" style="edgeStyle=none;shape=connector;rounded=0;orthogonalLoop=1;jettySize=auto;html=1;exitX=0.75;exitY=0.1;exitDx=0;exitDy=0;exitPerimeter=0;entryX=0;entryY=0.5;entryDx=0;entryDy=0;labelBackgroundColor=default;strokeColor=default;fontFamily=Helvetica;fontSize=11;fontColor=default;endArrow=none;endFill=0;" edge="1" parent="1" source="WaVDvveVSsbOzV-QIGKt-1" target="WaVDvveVSsbOzV-QIGKt-4">
          <mxGeometry relative="1" as="geometry" />
        </mxCell>
        <mxCell id="WaVDvveVSsbOzV-QIGKt-24" style="edgeStyle=none;shape=connector;rounded=0;orthogonalLoop=1;jettySize=auto;html=1;exitX=1;exitY=0.3333333333333333;exitDx=0;exitDy=0;exitPerimeter=0;entryX=0;entryY=0.5;entryDx=0;entryDy=0;labelBackgroundColor=default;strokeColor=default;fontFamily=Helvetica;fontSize=11;fontColor=default;endArrow=none;endFill=0;" edge="1" parent="1" source="WaVDvveVSsbOzV-QIGKt-1" target="WaVDvveVSsbOzV-QIGKt-5">
          <mxGeometry relative="1" as="geometry" />
        </mxCell>
        <mxCell id="WaVDvveVSsbOzV-QIGKt-1" value="Student" style="shape=umlActor;verticalLabelPosition=bottom;verticalAlign=top;html=1;outlineConnect=0;" vertex="1" parent="1">
          <mxGeometry x="160" y="490" width="30" height="60" as="geometry" />
        </mxCell>
        <mxCell id="WaVDvveVSsbOzV-QIGKt-22" style="rounded=0;orthogonalLoop=1;jettySize=auto;html=1;exitX=0;exitY=0.5;exitDx=0;exitDy=0;entryX=0.5;entryY=0;entryDx=0;entryDy=0;entryPerimeter=0;endArrow=none;endFill=0;" edge="1" parent="1" source="WaVDvveVSsbOzV-QIGKt-3" target="WaVDvveVSsbOzV-QIGKt-1">
          <mxGeometry relative="1" as="geometry" />
        </mxCell>
        <mxCell id="WaVDvveVSsbOzV-QIGKt-3" value="Registration" style="ellipse;whiteSpace=wrap;html=1;" vertex="1" parent="1">
          <mxGeometry x="400" y="130" width="120" height="80" as="geometry" />
        </mxCell>
        <mxCell id="WaVDvveVSsbOzV-QIGKt-4" value="Login" style="ellipse;whiteSpace=wrap;html=1;" vertex="1" parent="1">
          <mxGeometry x="400" y="230" width="120" height="80" as="geometry" />
        </mxCell>
        <mxCell id="WaVDvveVSsbOzV-QIGKt-5" value="Get course details" style="ellipse;whiteSpace=wrap;html=1;" vertex="1" parent="1">
          <mxGeometry x="400" y="330" width="120" height="80" as="geometry" />
        </mxCell>
        <mxCell id="WaVDvveVSsbOzV-QIGKt-25" style="edgeStyle=none;shape=connector;rounded=0;orthogonalLoop=1;jettySize=auto;html=1;exitX=0;exitY=0.5;exitDx=0;exitDy=0;entryX=1;entryY=0.3333333333333333;entryDx=0;entryDy=0;entryPerimeter=0;labelBackgroundColor=default;strokeColor=default;fontFamily=Helvetica;fontSize=11;fontColor=default;endArrow=none;endFill=0;" edge="1" parent="1" source="WaVDvveVSsbOzV-QIGKt-12" target="WaVDvveVSsbOzV-QIGKt-1">
          <mxGeometry relative="1" as="geometry" />
        </mxCell>
        <mxCell id="WaVDvveVSsbOzV-QIGKt-12" value="Get Calendar" style="ellipse;whiteSpace=wrap;html=1;" vertex="1" parent="1">
          <mxGeometry x="400" y="425" width="120" height="80" as="geometry" />
        </mxCell>
        <mxCell id="WaVDvveVSsbOzV-QIGKt-28" style="edgeStyle=none;shape=connector;rounded=0;orthogonalLoop=1;jettySize=auto;html=1;exitX=0;exitY=0.5;exitDx=0;exitDy=0;entryX=1;entryY=1;entryDx=0;entryDy=0;entryPerimeter=0;labelBackgroundColor=default;strokeColor=default;fontFamily=Helvetica;fontSize=11;fontColor=default;endArrow=none;endFill=0;" edge="1" parent="1" source="WaVDvveVSsbOzV-QIGKt-16" target="WaVDvveVSsbOzV-QIGKt-1">
          <mxGeometry relative="1" as="geometry" />
        </mxCell>
        <mxCell id="WaVDvveVSsbOzV-QIGKt-16" value="Download files" style="ellipse;whiteSpace=wrap;html=1;" vertex="1" parent="1">
          <mxGeometry x="400" y="730" width="120" height="80" as="geometry" />
        </mxCell>
        <mxCell id="WaVDvveVSsbOzV-QIGKt-27" style="edgeStyle=none;shape=connector;rounded=0;orthogonalLoop=1;jettySize=auto;html=1;exitX=0;exitY=0.5;exitDx=0;exitDy=0;labelBackgroundColor=default;strokeColor=default;fontFamily=Helvetica;fontSize=11;fontColor=default;endArrow=none;endFill=0;" edge="1" parent="1" source="WaVDvveVSsbOzV-QIGKt-17">
          <mxGeometry relative="1" as="geometry">
            <mxPoint x="189.99999999999977" y="510" as="targetPoint" />
          </mxGeometry>
        </mxCell>
        <mxCell id="WaVDvveVSsbOzV-QIGKt-17" value="Join disccusions" style="ellipse;whiteSpace=wrap;html=1;" vertex="1" parent="1">
          <mxGeometry x="400" y="630" width="120" height="80" as="geometry" />
        </mxCell>
        <mxCell id="WaVDvveVSsbOzV-QIGKt-26" style="edgeStyle=none;shape=connector;rounded=0;orthogonalLoop=1;jettySize=auto;html=1;exitX=0;exitY=0.5;exitDx=0;exitDy=0;labelBackgroundColor=default;strokeColor=default;fontFamily=Helvetica;fontSize=11;fontColor=default;endArrow=none;endFill=0;" edge="1" parent="1" source="WaVDvveVSsbOzV-QIGKt-18">
          <mxGeometry relative="1" as="geometry">
            <mxPoint x="199.99999999999977" y="510" as="targetPoint" />
          </mxGeometry>
        </mxCell>
        <mxCell id="WaVDvveVSsbOzV-QIGKt-18" value="View announcements" style="ellipse;whiteSpace=wrap;html=1;" vertex="1" parent="1">
          <mxGeometry x="400" y="530" width="120" height="80" as="geometry" />
        </mxCell>
        <mxCell id="WaVDvveVSsbOzV-QIGKt-29" style="edgeStyle=none;shape=connector;rounded=0;orthogonalLoop=1;jettySize=auto;html=1;exitX=0;exitY=0.5;exitDx=0;exitDy=0;labelBackgroundColor=default;strokeColor=default;fontFamily=Helvetica;fontSize=11;fontColor=default;endArrow=none;endFill=0;" edge="1" parent="1" source="WaVDvveVSsbOzV-QIGKt-19">
          <mxGeometry relative="1" as="geometry">
            <mxPoint x="189.99999999999977" y="550" as="targetPoint" />
          </mxGeometry>
        </mxCell>
        <mxCell id="WaVDvveVSsbOzV-QIGKt-19" value="Take quizzes" style="ellipse;whiteSpace=wrap;html=1;" vertex="1" parent="1">
          <mxGeometry x="400" y="830" width="120" height="80" as="geometry" />
        </mxCell>
      </root>
    </mxGraphModel>
  </diagram>
</mxfile>
